<svg viewBox="0 0 24 22" fill="none" xmlns="http://www.w3.org/2000/svg"><path d="M23.034 4.062c-.005-.031-.008-.063-.02-.092a.431.431 0 0 0-.052-.112.583.583 0 0 0-.331-.256c-.02-.006-.037-.02-.06-.024-.015-.003-.029.003-.046.003-.018 0-.03-.009-.046-.009H5.296L4.774.468c-.006-.026-.02-.05-.029-.072C4.737.366 4.728.337 4.714.31a.651.651 0 0 0-.07-.103.504.504 0 0 0-.164-.132.671.671 0 0 0-.08-.038.592.592 0 0 0-.124-.026C4.256.009 4.238 0 4.218 0H.565a.566.566 0 0 0 0 1.13h3.178l2.091 12.457a2.052 2.052 0 0 0-1.573 2v.097a2.069 2.069 0 0 0 2.072 1.988l13.979-.017a.563.563 0 0 0-.003-1.127l-13.979.018a.938.938 0 0 1-.945-.885v-.072c0-.49.372-.89.862-.936l4.252-.38c.014 0 .029 0 .043-.003l10.545-.94c.02-.002.037-.01.058-.017a.564.564 0 0 0 .123-.037.361.361 0 0 0 .072-.043.583.583 0 0 0 .147-.142.604.604 0 0 0 .058-.103c.011-.029.023-.055.032-.087.003-.014.011-.025.014-.043l1.447-8.623c.002-.014-.003-.026 0-.04.002-.023.01-.038.01-.058 0-.026-.01-.049-.014-.075ZM5.76 6.344 5.483 4.7h2.881l.277 1.645H5.76Zm.19 1.127h2.88l.33 1.956H6.277L5.95 7.47Zm1.002 5.981-.487-2.898h2.882l.443 2.644-2.838.254Zm6.137-.547-2.172.193-.427-2.544h2.6v2.35Zm0-3.478H10.3l-.328-1.956h3.117v1.956Zm0-3.083H9.785l-.277-1.642h3.581v1.642Zm3.377 6.258-2.25.202v-2.25h2.593l-.343 2.048Zm.533-3.175h-2.783V7.471h3.111L17 9.427Zm-2.783-3.083V4.7h3.575l-.276 1.645h-3.3Zm6.338 5.894-2.93.26.326-1.945h2.884l-.28 1.685Zm.473-2.811H18.14l.328-1.956h2.884l-.325 1.956Zm.515-3.083h-2.884l.277-1.645h2.884l-.277 1.645ZM8.9 18.3c-1.02 0-1.85.83-1.85 1.85S7.88 22 8.9 22s1.85-.83 1.85-1.85-.83-1.85-1.85-1.85Zm0 2.576a.724.724 0 1 1 0-1.447.724.724 0 0 1 0 1.448ZM16.958 18.3c-1.02 0-1.85.83-1.85 1.85s.83 1.85 1.85 1.85 1.85-.83 1.85-1.85-.83-1.85-1.85-1.85Zm0 2.576a.724.724 0 1 1 .001-1.447.724.724 0 0 1 0 1.448Z" fill="#6C758D"/></svg>