<svg viewBox="0 0 15 13" fill="none" xmlns="http://www.w3.org/2000/svg"><path d="M13.81 1.192A4.051 4.051 0 0 0 10.93 0a4.05 4.05 0 0 0-2.88 1.192l-.55.55-.55-.55A4.045 4.045 0 0 0 4.07 0 4.052 4.052 0 0 0 1.19 1.192a4.084 4.084 0 0 0 0 5.761l5.855 5.852a.64.64 0 0 0 .456.188.64.64 0 0 0 .455-.188l5.856-5.852a4.084 4.084 0 0 0 0-5.762Zm-.219 5.542-5.855 5.852a.332.332 0 0 1-.473 0L1.408 6.734a3.773 3.773 0 0 1 0-5.323 3.745 3.745 0 0 1 2.663-1.1c1.005 0 1.95.39 2.66 1.1l.66.66c.06.06.158.06.218 0l.66-.66a3.743 3.743 0 0 1 2.66-1.1c1.006 0 1.951.39 2.662 1.1a3.773 3.773 0 0 1 0 5.322Z" fill="#000"/></svg>