<svg width="20" height="19" fill="none" xmlns="http://www.w3.org/2000/svg"><path d="M5.611 0C2.517 0 0 2.404 0 5.358v7.653c0 2.954 2.519 5.357 5.613 5.357h8.018c3.094 0 5.611-2.404 5.611-5.358V5.356C19.242 2.403 16.724 0 13.63 0H5.611Zm9.783 2.939c.425 0 .77.329.77.735 0 .405-.345.734-.77.734-.425 0-.77-.329-.77-.734 0-.406.345-.735.77-.735Zm-5.773 1.47c2.76 0 5.003 2.141 5.003 4.775 0 2.634-2.244 4.776-5.003 4.776-2.76 0-5.003-2.143-5.003-4.776 0-2.634 2.244-4.776 5.003-4.776Zm0 1.469c-1.913 0-3.463 1.48-3.463 3.306s1.55 3.306 3.463 3.306 3.464-1.48 3.464-3.306-1.55-3.306-3.464-3.306Z" fill="#C1DBF0"/></svg>