<svg width="89" height="32" fill="none" xmlns="http://www.w3.org/2000/svg"><path d="M25.144 10.746c.127.76.215 1.583.266 2.47.076.887.076 1.963 0 3.23-.076 1.241-.253 2.774-.532 4.598-.38 2.457-1.38 4.522-3.002 6.194-1.621 1.647-3.66 2.723-6.118 3.23-.684.152-1.482.266-2.394.342l-2.736.152c-.887.025-1.685.063-2.394.114-.633.127-1.393.215-2.28.266-.887.05-1.723.038-2.508-.038-.785-.076-1.355-.215-1.71-.418.203-.355.367-.887.494-1.596a29.29 29.29 0 0 0 .304-2.394c.076-.861.101-1.685.076-2.47l-.114-12.882a97.58 97.58 0 0 0-.038-2.85c0-.861-.025-1.533-.076-2.014-.05-.532-.253-1-.608-1.406a4.39 4.39 0 0 1-.722-1.216C.647 2.943.469 1.854.52.79c.127.025.405.063.836.114.456.025.975.063 1.558.114a1462.384 1462.384 0 0 0 7.144.266l.608.038c.43 0 .963.025 1.596.076.633.05 1.292.127 1.976.228.684.076 1.28.177 1.786.304 1.647.43 3.027 1.026 4.142 1.786 1.14.735 2.052 1.533 2.736 2.394.71.861 1.241 1.71 1.596 2.546.355.81.57 1.507.646 2.09ZM11.882 23.78c1.039-.253 2.014-.747 2.926-1.482.937-.76 1.672-1.773 2.204-3.04.557-1.292.76-2.863.608-4.712-.177-2.407-.81-4.079-1.9-5.016-1.064-.937-2.457-1.419-4.18-1.444-.481-.025-.861.291-1.14.95-.279.659-.469 1.723-.57 3.192l-.114 2.166c-.025.456-.038.836-.038 1.14.025.304.025.697 0 1.178v.684c.025.456.063 1.026.114 1.71.05.659.114 1.343.19 2.052.076.684.165 1.267.266 1.748.127.532.367.836.722.912.355.05.659.038.912-.038ZM39.406 8.998c.506-.127.975 0 1.406.38.43.38.81.9 1.14 1.558.354.633.646 1.292.874 1.976.228.659.405 1.216.532 1.672l.19.684-.912.19c-.583.101-1.318.317-2.204.646-.862.304-1.723.773-2.584 1.406-.507.38-.988.836-1.444 1.368-.456.532-.85 1.216-1.178 2.052-.33.81-.57 1.887-.722 3.23a11.855 11.855 0 0 0-.038 2.128c.05.735.076 1.355.076 1.862.025.456.088.785.19.988.126.177.228.33.304.456-.33.304-.938.646-1.824 1.026-.862.355-1.812.532-2.85.532-1.014 0-1.761-.33-2.242-.988-.482-.659-.722-1.57-.722-2.736 0-.279-.013-.887-.038-1.824 0-.963-.013-2.115-.038-3.458 0-1.343-.013-2.736-.038-4.18 0-1.444-.013-2.787-.038-4.028a99.72 99.72 0 0 0-.038-3.078V9.682c.253-.05.684-.089 1.292-.114.633-.025 1.317 0 2.052.076a6.8 6.8 0 0 1 2.052.532c.304.127.709.253 1.216.38a8.133 8.133 0 0 0 1.52.152c.506 0 .874-.076 1.102-.228.48-.355.962-.659 1.444-.912a7.424 7.424 0 0 1 1.52-.57Zm9.728-.608a3.61 3.61 0 0 1-2.318-.722 5.142 5.142 0 0 1-1.52-1.862c-.33-.76-.456-1.482-.38-2.166.126-1.039.595-1.773 1.406-2.204a5.71 5.71 0 0 1 2.546-.684c1.266-.05 2.254.279 2.964.988.709.71 1.064 1.52 1.064 2.432 0 .608-.14 1.229-.418 1.862a4.02 4.02 0 0 1-1.216 1.634c-.558.43-1.267.671-2.128.722Zm4.028 18.772c.025.456.164.849.418 1.178.278.304.608.595.988.874a5.865 5.865 0 0 1-.684.722c-.28.253-.697.494-1.254.722-.532.203-1.305.367-2.318.494-.33.025-.748-.013-1.254-.114-.507-.076-1.014-.317-1.52-.722-.482-.43-.874-1.102-1.178-2.014-.304-.937-.431-2.217-.38-3.838.025-.279.025-.823 0-1.634 0-.81-.013-1.773-.038-2.888 0-1.115-.013-2.267-.038-3.458 0-1.19-.013-2.293-.038-3.306 0-1.039-.013-1.875-.038-2.508v-.988c.228-.025.608-.05 1.14-.076.557-.05 1.165-.05 1.824 0 .658.05 1.292.177 1.9.38.633.177 1.165.469 1.596.874.456.405.722.95.798 1.634.126.963.177 2.255.152 3.876a492.472 492.472 0 0 1-.114 5.244 80.784 80.784 0 0 0 .038 5.548Zm3.76.722v-5.016c0-1.343-.013-2.812-.038-4.408v-4.902c0-1.647-.013-3.205-.038-4.674 0-1.495-.013-2.787-.038-3.876-.025-1.039-.114-1.9-.266-2.584-.152-.71-.24-1.14-.266-1.292.304-.05.76-.063 1.368-.038.608 0 1.28.076 2.014.228.76.127 1.482.342 2.166.646a4.397 4.397 0 0 1 1.71 1.216c.456.507.697 1.153.722 1.938.025.481.038 1.33.038 2.546.025 1.19.038 2.597.038 4.218l.076 4.94c.025 1.672.038 3.255.038 4.75.025 1.495.038 2.749.038 3.762.025.988.038 1.57.038 1.748 0 .532.14 1.051.418 1.558.304.481.62.785.95.912-.152.203-.494.469-1.026.798-.532.33-1.153.633-1.862.912a7.687 7.687 0 0 1-2.09.532c-.583.05-1.19-.089-1.824-.418-.608-.304-1.127-.76-1.558-1.368-.405-.608-.608-1.317-.608-2.128Zm29.83-6.422c.634.43 1.04 1.051 1.216 1.862.203.785.178 1.647-.076 2.584-.228.937-.696 1.837-1.406 2.698-.709.836-1.672 1.533-2.888 2.09-1.19.557-2.634.849-4.332.874a14.566 14.566 0 0 1-4.18-.532A12.045 12.045 0 0 1 71.4 29.29c-1.089-.785-1.976-1.799-2.66-3.04-.684-1.241-1.064-2.723-1.14-4.446a8.007 8.007 0 0 1 0-1.102c.026-.38.051-.773.076-1.178v-.304l.076-.304a11.41 11.41 0 0 1 1.558-4.18 12.459 12.459 0 0 1 2.964-3.23 11.906 11.906 0 0 1 3.724-1.938c1.343-.43 2.66-.583 3.952-.456 2.002.203 3.547.735 4.636 1.596 1.115.861 1.837 1.925 2.166 3.192.355 1.241.368 2.584.038 4.028-.177.71-.582 1.419-1.216 2.128-.608.684-1.368 1.305-2.28 1.862-.912.532-1.887.95-2.926 1.254a9.288 9.288 0 0 1-2.964.342c-.48-.025-.734.127-.76.456-.025.304.114.646.418 1.026.304.355.71.595 1.216.722 1.191.253 2.306.266 3.344.038 1.064-.253 1.875-.595 2.432-1.026.456-.355.938-.823 1.444-1.406a10.44 10.44 0 0 0 1.254-1.862Zm-8.322-3.838c.583-.05 1.09-.228 1.52-.532.456-.33.684-.671.684-1.026.026-.507-.1-.912-.38-1.216-.253-.33-.696-.481-1.33-.456a9.12 9.12 0 0 0-2.052.304c-.658.177-1.05.545-1.178 1.102-.076.38.038.71.342.988a3.12 3.12 0 0 0 1.14.646c.456.127.874.19 1.254.19Z" fill="#565759"/></svg>