<svg viewBox="0 0 23 22" fill="none" xmlns="http://www.w3.org/2000/svg"><path d="M21.642 22a.54.54 0 0 0 .549-.53c0-4.398-2.77-8.358-6.849-9.965 1.483-1.194 2.43-2.993 2.43-5.002C17.772 2.917 14.758 0 11.053 0 7.35 0 4.335 2.918 4.335 6.503c0 2.01.947 3.81 2.431 5.004C2.794 13.086.191 16.965.191 21.468c0 .293.245.531.548.531a.54.54 0 0 0 .548-.53c0-4.33 2.648-8.016 6.604-9.23.944.489 2.02.767 3.162.767a6.848 6.848 0 0 0 3.162-.767c4.058 1.242 6.879 5.012 6.879 9.229a.54.54 0 0 0 .548.531ZM5.432 6.504c0-3 2.522-5.442 5.621-5.442 3.1 0 5.622 2.441 5.622 5.442 0 3-2.522 5.441-5.622 5.441s-5.621-2.44-5.621-5.441Z" fill="#6C758D"/></svg>