<svg viewBox="0 0 15 13" xmlns="http://www.w3.org/2000/svg"><path fill-rule="evenodd" clip-rule="evenodd" d="M13.554 7.439a.175.175 0 0 0-.321.048 6.002 6.002 0 0 1-2.829 3.708c-2.846 1.643-6.443.726-8.042-2.043a5.639 5.639 0 0 1-.756-2.7l1.81 1.151a.176.176 0 1 0 .188-.296l-2.08-1.323a.175.175 0 0 0-.247.06L.025 8.21a.176.176 0 1 0 .304.176l.94-1.626c.064.88.321 1.756.79 2.567 1.695 2.938 5.514 3.908 8.52 2.172a6.355 6.355 0 0 0 2.994-3.925.174.174 0 0 0-.019-.135ZM14.974 4.092a.175.175 0 0 0-.302.005l-.918 1.546a6.001 6.001 0 0 0-.794-2.61C11.264.095 7.445-.875 4.44.862a6.347 6.347 0 0 0-2.987 3.903.176.176 0 1 0 .34.088 5.994 5.994 0 0 1 2.822-3.688C7.461-.478 11.057.44 12.656 3.208c.496.858.741 1.793.76 2.725L11.621 4.76a.175.175 0 1 0-.191.294l2.066 1.35a.175.175 0 0 0 .246-.057l1.231-2.072a.175.175 0 0 0 0-.184Z"/></svg>