<svg width="25" height="21" fill="none" xmlns="http://www.w3.org/2000/svg"><path d="M24.49 2.86c-.9.408-1.868.679-2.889.807A5.1 5.1 0 0 0 23.813.852a9.964 9.964 0 0 1-3.192 1.232A4.974 4.974 0 0 0 16.956.482c-2.775 0-5.025 2.274-5.025 5.078 0 .397.046.783.132 1.159-4.176-.214-7.879-2.238-10.356-5.31-.436.75-.68 1.63-.68 2.557 0 1.763.885 3.315 2.234 4.229a5.039 5.039 0 0 1-2.278-.634v.06c0 2.463 1.733 4.514 4.03 4.981-.42.117-.864.182-1.321.182-.325 0-.64-.037-.947-.093.64 2.013 2.495 3.484 4.692 3.528A10.027 10.027 0 0 1 0 18.32a14.153 14.153 0 0 0 7.703 2.28c9.241 0 14.296-7.74 14.296-14.453 0-.22-.007-.439-.017-.656a9.99 9.99 0 0 0 2.509-2.63Z" fill="#C1DBF0"/></svg>