<svg viewBox="0 0 330 266" fill="none" xmlns="http://www.w3.org/2000/svg"><path d="M313.244 84.73H277.28c-2.869 0-5.214 2.349-5.214 5.222v15.8c0 2.64 2.155 4.799 4.792 4.799h.918l-1.734 7.324 10.881-7.324h26.627c2.87 0 5.215-2.348 5.215-5.222v-15.07c0-3.05-2.491-5.53-5.521-5.53Z" fill="#88EEFB"/><path d="M314.206 97.848h-37.494a.94.94 0 0 1-.932-.934.94.94 0 0 1 .932-.933h37.494a.94.94 0 0 1 .932.933.94.94 0 0 1-.932.934ZM314.206 102.006h-37.494a.94.94 0 0 1-.932-.934.94.94 0 0 1 .932-.934h37.494a.94.94 0 0 1 .932.934.93.93 0 0 1-.932.934ZM314.206 106.178h-37.494a.94.94 0 0 1-.932-.934c0-.51.422-.933.932-.933h37.494c.51 0 .932.423.932.933a.94.94 0 0 1-.932.934ZM293.784 91.386h-15.921a1.107 1.107 0 0 1-1.107-1.109c0-.613.495-1.109 1.107-1.109h15.921c.612 0 1.107.496 1.107 1.11-.015.612-.51 1.108-1.107 1.108ZM307.462 91.386h-9.585a.877.877 0 0 1-.874-.876v-.466c0-.482.393-.876.874-.876h9.585c.48 0 .873.394.873.876v.466a.877.877 0 0 1-.873.876ZM126.593 180.32h49.991a2.836 2.836 0 0 0 2.84-2.844V162.07a2.836 2.836 0 0 0-2.84-2.844h-49.991a2.837 2.837 0 0 0-2.841 2.844v15.406c.015 1.561 1.282 2.844 2.841 2.844Z" fill="#fff"/><path d="M206.27 10.636v184.5a8.224 8.224 0 0 1-8.23 8.227H94.911c-4.544 0-8.23-3.69-8.23-8.227v-184.5c0-4.552 3.686-8.243 8.23-8.243H198.04a8.237 8.237 0 0 1 8.23 8.242Z" fill="#C0D8FB"/><path d="M113.673 149.779h50.311a2.668 2.668 0 0 0 2.666-2.669v-13.349a2.668 2.668 0 0 0-2.666-2.669h-50.311a2.67 2.67 0 0 0-2.666 2.669v13.334a2.672 2.672 0 0 0 2.666 2.684Z" fill="#FCE29E"/><path d="M204.187 2.407H88.458v77.26h115.729V2.408Z" fill="#F0F6FF"/><path d="M161.086 12.445H131.91a7.82 7.82 0 0 1-7.822-7.834h44.82c-.014 4.332-3.51 7.834-7.822 7.834Z" fill="#2B478B"/><path d="M198.259 205.58H94.707c-5.578 0-10.109-4.785-10.109-10.664V10.854c0-5.88 4.53-10.664 10.11-10.664h103.551c5.579 0 10.109 4.785 10.109 10.664v184.062c0 5.879-4.53 10.664-10.109 10.664ZM94.707 4.61c-3.262 0-5.913 2.8-5.913 6.244v184.062c0 3.443 2.65 6.244 5.913 6.244H198.26c3.262 0 5.914-2.801 5.914-6.244V10.854c0-3.443-2.652-6.244-5.914-6.244H94.707Z" fill="#2B478B"/><path d="M197.72 203.304H92.042c-3.015 0-5.477-2.45-5.477-5.47v-7.426h119.837v4.202c0 4.799-3.89 8.694-8.682 8.694Z" fill="#2B478B"/><path d="M216.103 103.272c4.515-.963 9.22.408 12.57 3.589a36.701 36.701 0 0 1 4.574 5.251c3.685 5.15-3.365 10.256-2.432 11.992.932 1.751 3.117 3.122 2.155 6.769-.946 3.647-7.224 8.374-9.264 8.578-20.728 2.13-29.715-9.307-22.796-15.478 6.919-6.171 4.108-15.114 9.73-18.586 1.748-1.079 3.656-1.721 5.463-2.115Z" fill="#233862"/><path d="M226.648 135.177s19.519 8.519 23.059 8.359c3.539-.161 25.374-6.652 25.374-6.652l-.553 3.763s-16.854 9.702-22.738 10.256c-5.798.54-25.622-5.208-27.545-6.433-1.923-1.226-3.161-8.068 2.403-9.293Z" fill="#FDB888"/><path d="M229.008 144.484c-1.719 1.197-3.86 2.174-6.555 2.801-10.109 2.335-13.983-6.214-15.44-12.093 1.384-.788 2.68-.963 3.423-1.051.728-.087 1.5-.146 2.141-.175 1.136-.875 2.826-4.435 3.205-9.978l.481.131 7.967 2.188s-.364 2.539-.539 4.931c-.131 1.882-.16 3.676.19 4.114.626.131.99.219.99.219v.014c.102.161 2.418 3.969 4.137 8.899Z" fill="#FFB27D"/><path d="M224.216 126.292s-.365 2.539-.539 4.931c-4.516-.452-6.613-4.756-7.429-7.119l7.968 2.188Z" fill="#ED985F"/><path d="M225.57 128.67s-10.72-.598-10.254-7.265c.466-6.681-.598-11.247 6.263-11.16 6.861.102 8.012 2.743 8.39 5.004.394 2.261-1.602 13.407-4.399 13.421Z" fill="#FFB27D"/><path d="M229.94 111.515c-1.515-2.13-2.796-1.78-3.539-1.225-5.623-3.647-9.73.846-9.73.846-1.064 4.741-4.705 7.236-4.705 7.236s1.893 1.517 6.453.51c5.811-1.298 7.807-6.346 8.084-7.119.612.642 1.398 1.036 2.01 2.422.714 1.634 1.165 2.582 1.18 5.266-.015 0 2.505-4.741.247-7.936Z" fill="#233862"/><path d="M203.954 166.309c-.961-4.96-4.122-24.757-.961-31.132 1.136-2.291 5.579-2.495 10.458-2.291 1.515.978 7.298 4.698 9.687 4.231.029 0 .073-.014.131-.029 1.122-.277 1.544-1.065.612-1.751 0 0 2.418-.233 5.418.336 1.69.321 6.264 2.684 6.264 2.684s-2.302 4.172-5.696 5.602c.583 5.179-.276 7.455-5.637 19.403-4.53 10.095.612 19.198.612 19.198s-26.656 21.46-26.802 10.533c-.116-8.228 7.152-20.453 5.914-26.784Z" fill="#fff"/><path d="M226.153 205.887a4.961 4.961 0 0 0 3.569-2.174c.131-.189.262-.394.407-.627 3.03-4.595 4.21-18.688 11.042-33.699 1.66-3.647 7.632-4.304 9.249-8.447 0 0 4.006-13.392-7.662-13.786-11.667-.394-31.244 37.244-31.565 41.198-.291 3.851-7.705 20.103 14.96 17.535Z" fill="#FDCD51"/><path d="M272.532 205.581h-16.606s-.626-2.655.467-4.464c.961-1.591.597-2.51-.117-3.823.757.307 1.719.584 2.797.526.83-.044 1.704-.423 2.476-.876.714.817 3.773 4.289 4.734 4.975 1.078.802 5.914.511 6.249 3.662Z" fill="#233862"/><path d="M250.799 151.049c1.006 7.513 4.909 31.205 11.799 42.773 2.214 3.735-5.593 5.821-5.637 5.807-1.049-.278-2.797-1.955-3.598-2.67-5.593-5.048-16.94-19.344-16.94-30.796 0-5.588-.102-16.266 3.962-18.98 2.49-1.677 10.021.89 10.414 3.866Z" fill="#FDCD51"/><path d="M216.248 205.581s.612-.861 1.69-2.48c1.281-1.941 2.694-5.748 4.399-10.635 1.806-5.136 3.933-11.438 6.613-18.017.83-2.028 1.704-4.085 2.636-6.127 1.661-3.647 6.235-3.151 7.866-7.28 0 0 6.351-14.311-5.317-14.72-11.667-.394-33.837 38.295-35.119 42.044-1.398 4.114-8.215 21.153 17.232 17.215Z" fill="#FCE29E"/><path d="M260.34 205.581h-16.605s-.627-2.655.466-4.464c.961-1.591.597-2.51-.117-3.823.758.307 1.719.584 2.797.526.83-.044 1.704-.423 2.476-.876.714.817 3.773 4.289 4.734 4.975 1.078.802 5.914.511 6.249 3.662Z" fill="#2B478B"/><path d="M222.337 192.466c1.806-5.135 3.933-11.438 6.613-18.017-.699-4.975-2.2-9.337-4.734-11.087 0 0-6.133 19.038-1.879 29.104Z" fill="#FFDB7D"/><path d="M241.113 150.524c1.005 7.513 2.403 31.744 9.293 43.298 2.214 3.735-5.594 5.821-5.637 5.806-1.049-.277-2.797-1.954-3.598-2.669-5.594-5.048-16.941-19.345-16.941-30.796 0-5.588 6.555-15.814 10.605-18.528 2.49-1.677 5.87-.102 6.278 2.889Z" fill="#FCE29E"/><path d="m277.062 127.212-17.013-1.809a1.08 1.08 0 0 0-1.137.7l-6.088 16.018c-.262.7.233 1.459.976 1.488l16.882.686c.452.014.874-.248 1.063-.671l6.22-14.881c.277-.7-.175-1.459-.903-1.531Z" fill="#233862"/><path d="m278.533 127.358-17.013-1.809a1.08 1.08 0 0 0-1.137.7l-6.088 16.018c-.262.7.233 1.459.976 1.488l16.882.686c.452.014.874-.248 1.063-.671l6.22-14.88c.277-.686-.175-1.459-.903-1.532Z" fill="#2B478B"/><path d="M269.108 134.842c.204-.569-.087-1.036-.655-1.036-.568 0-1.209.467-1.413 1.036-.204.569.087 1.035.655 1.035.568 0 1.209-.466 1.413-1.035ZM278.023 128.875c.102-.277-.043-.51-.32-.51s-.597.233-.699.51c-.102.277.043.511.32.511.291 0 .597-.234.699-.511Z" fill="#EBF3FA"/><path d="M207.013 135.177s23.568 8.694 27.108 8.519c2.287-.116 21.325-6.812 21.325-6.812l1.704 3.238s-18.514 11.919-23.612 11.861c-10.05-.117-27.02-6.303-28.928-7.513-1.908-1.211-3.161-8.068 2.403-9.293Z" fill="#FFB27D"/><path d="M255.446 136.884s1.704-2.626 3.408-2.714c1.705-.073 4.632 1.167 5.637 1.357 1.005.19 3.86 1.124 3.016 2.524-.845 1.401-4.793 1.707-6.497 1.401-1.704-.307-3.86.686-3.86.686l-1.704-3.254Z" fill="#FFB27D"/><path d="M258.388 134.258s2.71-1.24 3.482-1.474c.772-.233.611 0 .393.744-.233.73-1.617 1.43-1.617 1.664 0 .233-2.258-.934-2.258-.934ZM276.785 135.484s-1.704-2.7-2.258-2.816c-1.704-.336-1.704 1.911-1.34 3.355.394 1.547 1.705 3.021 2.054 2.889.364-.117 1.937-1.999 1.544-3.428Z" fill="#FFB27D"/><path d="M276.844 136.023s.539 3.035-2.331 4.61l.845-2.086 1.486-2.524Z" fill="#FFB27D"/><path d="M227.581 124.833s-1.02-.408-3.86-.175c0 0 .145 1.109 2.258 1.226 1.179.058 1.602-1.051 1.602-1.051ZM219.147 139.466s-2.112 6.681-9.352 8.198c0 0-11.958-3.69-6.001-11.845 0 0 5.899-4.377 15.353 3.647ZM172.374 140.88a12.13 12.13 0 0 0 3.817 8.841 12.065 12.065 0 0 0 8.302 3.297c.263 0 .525-.015.772-.029a12.068 12.068 0 0 0 7.793-3.531c.262-.262.525-.54.758-.831a12.064 12.064 0 0 0 2.796-7.747c0-3.355-1.354-6.389-3.554-8.578-2.199-2.188-5.214-3.559-8.565-3.559-3.35 0-6.38 1.356-8.565 3.559-2.185 2.203-3.554 5.238-3.554 8.578Z" fill="#fff"/><path d="M177.458 146.38c.218.146.451.278.713.365 1.894 1.649 4.895 4.304 7.094 6.244a12.074 12.074 0 0 0 7.793-3.53c.262-.263.525-.54.758-.832.378-.452.728-.934 1.034-1.444a9.844 9.844 0 0 0-.947-1.401c-1.952-2.524-3.54-3.384-3.103-6.637.233-1.766-.903-8.024-4.952-8.345-.335-.029-2.389-.379-3.875.044-3.598.977-8.652 12.677-4.515 15.536Z" fill="#233862"/><path d="M181.653 145.681c-.014 0 1.69 1.035 3.03.758 1.267-.262 2.564-1.984 2.535-1.984-.525-.131-1.006-.73-.787-3.852l-.248.029-4.064.54s.015 1.27-.058 2.466c-.044 1.007-.175 1.955-.408 2.043Z" fill="#FFB27D"/><path d="M182.134 141.187s.014 1.269-.059 2.466c2.244.073 3.569-1.897 4.123-3.006l-4.064.54Z" fill="#ED975D"/><path d="M181.318 142.267s5.302.423 5.521-2.889c.218-3.311 1.034-5.485-2.346-5.908-3.379-.408-4.122.817-4.457 1.897-.335 1.094-.102 6.696 1.282 6.9Z" fill="#FFB27D"/><path d="M180.604 133.645s2.68 3.56 4.88 4.275c2.199.715 3.204.175 3.204.175s-1.092-1.386-1.5-3.341a1.61 1.61 0 0 0-1.107-1.211c-1.559-.467-4.588-1.196-5.477.102Z" fill="#233862"/><path d="M182.716 133.849s-1.34.832-1.85 1.547c-.495.686-.99 2.51-.888 3.283 0 0-.991-3.721.335-5.136 1.398-1.503 2.403.306 2.403.306Z" fill="#233862"/><path d="M176.191 149.721a12.06 12.06 0 0 0 8.302 3.297h.802l-.03-.029a12.072 12.072 0 0 0 7.793-3.53c.262-.263.525-.54.758-.832-.423-.919-.831-1.663-1.166-2.145-1.5-2.1-5.841-2.363-5.841-2.363-.014 0-.014.015-.029.015-1.646.977-2.738 1.284-3.452 1.284-1.049 0-1.296-.672-1.34-.832v-.029s-3.132.525-4.53 1.838c-.291.277-.51.583-.597.919-.117.423-.364 1.298-.67 2.407Z" fill="#FCE29E"/><path d="M65.738 124.688h99.386a5.369 5.369 0 0 0 5.36-5.369V91.951a5.369 5.369 0 0 0-5.36-5.368H65.738a5.369 5.369 0 0 0-5.36 5.368v27.368a5.37 5.37 0 0 0 5.36 5.369Z" fill="#fff"/><path d="M118.338 102.981h-13.809v1.795h13.809v-1.795ZM121.746 106.569h-17.218v1.795h17.218v-1.795ZM135.787 106.569h-12.672v1.795h12.672v-1.795ZM117.201 110.07h-12.673v1.795h12.673v-1.795ZM129.029 102.98h-9.206v1.795h9.206v-1.795ZM149.625 102.98h-18.616v1.795h18.616v-1.795ZM124.207 94.096H104.66v2.539h19.547v-2.54ZM153.398 94.096h-27.02v2.538h27.02v-2.538Z" fill="#CBE1FD"/><path d="M124.234 140.429h-9.075v1.182h9.075v-1.182ZM126.476 142.792h-11.318v1.181h11.318v-1.181ZM135.711 142.792h-8.331v1.181h8.331v-1.181ZM123.49 145.096h-8.332v1.182h8.332v-1.182ZM131.269 140.429h-6.06v1.182h6.06v-1.182ZM144.815 140.429h-12.25v1.182h12.25v-1.182ZM128.109 134.593h-12.862v1.663h12.862v-1.663ZM147.291 134.593h-17.77v1.663h17.77v-1.663ZM137.139 168.921h-9.075v1.182h9.075v-1.182ZM139.382 171.268h-11.318v1.182h11.318v-1.182ZM148.617 171.268h-8.332v1.182h8.332v-1.182ZM136.396 173.573h-8.332v1.182h8.332v-1.182ZM144.174 168.92h-6.059v1.182h6.059v-1.182ZM157.721 168.92h-12.25v1.182h12.25v-1.182ZM141.016 163.07h-12.862v1.663h12.862v-1.663ZM160.197 163.07h-17.77v1.663h17.77v-1.663Z" fill="#fff"/><path d="m193.729 15.567-1.195.86-1.194-.846c.262-.379.699-.627 1.194-.627.481 0 .918.248 1.195.613ZM192.535 12.868a3.557 3.557 0 0 0-2.899 1.503l.757.525a2.621 2.621 0 0 1 2.142-1.109c.874 0 1.646.438 2.126 1.094l.758-.54a3.585 3.585 0 0 0-2.884-1.473ZM192.534 8.914c-2.534 0-4.763 1.254-6.132 3.18l.757.526a6.566 6.566 0 0 1 5.375-2.787c2.2 0 4.152 1.094 5.346 2.757l.743-.54a7.44 7.44 0 0 0-6.089-3.136Z" fill="#2B478B"/><path d="M192.534 11.073c-1.806 0-3.394.89-4.369 2.262l.757.525a4.446 4.446 0 0 1 3.612-1.867 4.47 4.47 0 0 1 3.598 1.838l.743-.54a5.37 5.37 0 0 0-4.341-2.218Z" fill="#2B478B"/><path d="m249.166 79.185-5.253-8.3 6.653 4.076-1.153.881.585 2.33-.832 1.013Z" fill="#685ED6"/><path d="m243.913 70.886 7.116 5.666 3.621 7.067-10.737-12.733Z" fill="#18E1F7"/><path d="m250.565 74.963-6.651-4.075 8.304 1.73-1.653 2.345Z" fill="#18E1F7"/><g clip-path="url('#clip0_1_2878')"><path d="M187.936 72.368h-83.002v7.931h83.002v-7.931Z" fill="#fff"/><path d="M148.969 61.418s-1.14 1.162-2.28 2.467c-.488.53-.957 1.101-1.364 1.61-1.364 1.714-2.646 2.203-4.153 3.875-.936 1.04-2.158 1.835-4.438 2.202s-10.627.959-10.627.959-.204-1.101-.061-1.468c.041-.102-.061-.306-.204-.592-.366-.734-.977-1.855.204-1.998 1.608-.184 9.446-2.08 9.813-2.65.366-.572 2.483-3.202 3.623-5.588 1.14-2.386 2.851-5.301 4.601-8.156 1.527-2.508 1.975-2.63 2.789-3.364l.957 5.831 1.14 6.872Z" fill="#6D9BFF"/><path d="M122.28 72.286h-5.579v-.245a2.796 2.796 0 0 1 2.789-2.793 2.796 2.796 0 0 1 2.79 2.793v.245Z" fill="#A5A5A5"/><path d="M122.464 69.105c-.448-.163-1.812-.815-2.545-.815-.733 0-1.954 1.243-2.647 1.855-.692.612.265 1.183.815.898.57-.286 1.099-1 1.628-.98.53.021.774.49 1.059.592.143.04.224.449-.041.632-.285.204-.916.204-1.079.306-.346.225-.122.816.469.816.59 0 1.079.061 1.791-.082.692-.142 1.568.062 2.097-.163.55-.224 2.077.326 2.077.326l-1.1-2.997c0 .04-1.649-.041-2.524-.388Z" fill="#FDD2BB"/><path d="M122.87 69.105c.122.449.407.755.631 1.448.509 1.489-.142 1.774-.142 1.774s2.85.204 3.359 0c0 0 .692-.775 0-2.304l-.692-1.53s-.428 0-1.69.184c-1.038.143-1.466.428-1.466.428Z" fill="#2C5CFF"/><path d="M162.691 38.682s-.57 1.672-.631 3.12c-.061 1.448-.061 3.446.367 4.221.427.775 4.886 3.385 4.886 3.385s-5.069 1.06-10.078.754c-5.008-.306-6.087-2.426-6.087-2.426s3.807-1.489 3.909-1.876c.102-.388.835-3.263.835-3.263l6.799-3.915Z" fill="#F6C1AA"/><path opacity=".28" d="M162.325 45.758c-.305-.897-.305-2.65-.265-3.956.061-1.448.631-3.12.631-3.12l-6.779 3.875s-.733 2.895-.835 3.262c-.101.387-3.908 1.876-3.908 1.876s.04.082.142.204c3.685-.612 7.349-1.366 11.014-2.141Z" fill="#EB9271"/><path d="M153.856 38.336c.163-1.203.204-5.587.204-5.587l5.843-2.06 5.11 2.855s-1.222 3.874-1.242 5.098c-.021 1.223-.102 2.854-.876 4.017-.753 1.162-2.748 2.977-3.216 3.201-1.405.653-2.321.204-3.38-.408-.448-.265-1.059-1.59-1.649-2.854-.611-1.265-.957-3.059-.794-4.262Z" fill="#FDD2BB"/><path d="M163.017 35.297s.021 1.57.428 2.59c.081.204.02.816-.061 1.55.203-.245.427-.47.631-.694.427-.448.814-.897 1.181-1.366.224-.897.611-2.1.59-2.793-.041-2.1-.041-3.263-3.868-5.139-.733-.346-2.219-1.325-2.972-1.04-1.14.429-1.466.836-2.362 1.591 0 0-1.201-.245-2.708 1.387-.875.958-.61 2.344-.57 3.384.102 2.121.672 1.999.672 1.999.082-1.081-.102-1.53.224-3.16.102-.551.916-.735 1.486-.857.53-.123.713-.327 2.484 1.447 1.059 1.06 1.629.98 4.845 1.102Z" fill="#5C3000"/><path d="M163.16 38.601c.285-1.06.733-1.835 1.222-1.815.468.04.956.918.366 1.917-.59 1-.977 1.611-1.303 1.998-.326.429-.468-1.427-.285-2.1Z" fill="#FDD2BB"/><path d="M163.445 38.723c.163-.57.427-1.285.855-1.244.427.041.489.51-.102 1.326-.59.795-.712 1.223-.712 1.223s-.123-.978-.041-1.305Z" fill="#EB9271"/><path d="M158.334 60.154c-.631 3.71-.916 12.825-2.483 12.132-.855-.387-3.502-.367-5.741-.285-1.833.081-3.36.203-3.36.203s-.101-4.118-.061-8.319c.021-2.019.061-4.037.184-5.648.04-.53.061-1.04.081-1.53.143-4.71-.631-7.442-.081-7.972.61-.591 7.716-2.386 8.062-3.242l.529 2.508c1.303 2.08 2.993 1.448 2.993 1.448s.509 6.994-.123 10.705Z" fill="#6D9BFF"/><path d="M156.665 50.142c-.346 2.06-.428 3.67-1.018 7.626-.59 3.956-.305 5.587-.57 8.075a309.68 309.68 0 0 1-.753 6.178l4.255.632s.142-7.137.366-12.153c.224-5.016 1.059-9.481 1.059-9.481l.57-3.059s-1.568 1.672-3.196 1.509c-1.649-.204-.713.673-.713.673Z" fill="#2C5CFF"/><path d="M169.389 53.099c-.162 1.529.55 3.425.224 5.566-.224 1.428-.509 3.16-.814 4.894-.428 2.467-.183 8.707-.183 8.707s-9.711-.347-11.36.122c-1.629.449-.611-8.605-.713-12.377-.102-3.772 1.425-10.583 1.425-10.583s1.263 0 3.197-1.509c1.201-.917 1.404-2.14 1.404-2.14.224.876 6.841 2.874 7.37 3.568.082.102.143.306.183.57.061.673-.59 1.754-.733 3.181Z" fill="#6D9BFF"/><path d="M157.947 49.428c.591-.163 2.566-1.264 3.299-2.243.732-.979.936-2.08.936-2.08s.692 1.122.774 1.835c.081.714-1.588 4.18-1.894 5.139 0 0-.529-.102-1.506-.938a11.021 11.021 0 0 1-1.609-1.713ZM155.179 45.39s-.326.49.407 1.693 2.341 2.366 2.341 2.366l-2.605 2.528s-.611-1.509-.978-2.814c-.366-1.305-.305-2.692-.122-3.1.204-.387.957-.672.957-.672ZM158.721 55.036c-.02.387-.346.652-.733.632-.387-.02-.651-.347-.631-.734.02-.388.346-.653.733-.633a.66.66 0 0 1 .631.735ZM158.192 62.376c-.02.388-.346.653-.733.633-.387-.02-.651-.347-.631-.735.02-.387.346-.652.733-.632a.66.66 0 0 1 .631.734ZM157.662 69.697c-.02.387-.346.652-.732.632-.387-.02-.652-.347-.632-.734.021-.388.347-.653.733-.633.387.041.672.367.631.735ZM161.612 57.747c1.69.143 3.542.347 4.255.265v1.081s-1.69-.183-3.176-.183h-2.117l.183-1.163s-.02-.06.855 0Z" fill="#2C5CFF"/><path d="M148.338 71.205h-9.324v1.081h9.324v-1.08Z" fill="#E9EBEE"/><path d="M160.33 71.205h-12.012v1.081h12.012v-1.08Z" fill="#E9EBEE"/><path d="M148.97 70.736v.47h1.669v-.47h-1.669ZM146.873 70.736v.47h1.669v-.47h-1.669ZM144.776 70.736v.47h1.669v-.47h-1.669ZM142.679 70.736v.47h1.669v-.47h-1.669ZM158.07 70.736h-.591v.47h1.67v-.47h-1.079ZM155.383 70.736v.47h1.669v-.47h-1.669ZM153.286 70.736v.47h1.669v-.47h-1.669ZM151.189 70.736v.47h1.669v-.47h-1.669ZM140.582 70.737v.469h1.669v-.47h-1.669Z" fill="#D5D5D7"/><path d="M142.027 41.72h-32.92a.863.863 0 0 0-.875.98l2.3 22.327c.061.53.53.979 1.079.979h32.92a.863.863 0 0 0 .875-.979l-2.3-22.328a1.115 1.115 0 0 0-1.079-.978Z" fill="#FAFCFF"/><path d="M142.027 41.72h-32.92a.863.863 0 0 0-.875.98l2.3 22.327c.061.53.53.979 1.079.979h32.92a.863.863 0 0 0 .875-.979l-2.3-22.328a1.115 1.115 0 0 0-1.079-.978Z" fill="#6B6B6B"/><path d="M141.417 41.72h-32.92a.89.89 0 0 0-.896.98l1.975 22.327c.041.53.529.979 1.059.979h32.919c.53 0 .937-.428.896-.979L142.475 42.7a1.079 1.079 0 0 0-1.058-.98Z" fill="#D5D5D7"/><path d="M135.879 64.192a.437.437 0 0 1-.427-.388l-.163-1.835a.353.353 0 0 1 .346-.388c.204 0 .407.163.427.388l.163 1.835c.021.224-.122.388-.346.388ZM137.1 64.191a.437.437 0 0 1-.427-.387l-.163-1.836a.354.354 0 0 1 .346-.387c.204 0 .407.163.428.387l.163 1.836c.02.224-.123.387-.347.387ZM138.322 64.191a.437.437 0 0 1-.427-.387l-.163-1.836a.353.353 0 0 1 .346-.387c.203 0 .407.163.427.387l.163 1.836a.343.343 0 0 1-.346.387ZM139.544 64.191a.438.438 0 0 1-.428-.387l-.163-1.836a.354.354 0 0 1 .346-.387c.204 0 .408.163.428.387l.163 1.836a.344.344 0 0 1-.346.387ZM140.765 64.191a.437.437 0 0 1-.427-.387l-.163-1.836a.353.353 0 0 1 .346-.387c.203 0 .407.163.427.387l.163 1.836a.343.343 0 0 1-.346.387Z" fill="#E9EBEE"/><path d="M133.7 71.511h-4.58v.857l4.58.142v-.999Z" fill="#6B6B6B"/><path d="m127.411 67.637 1.16-13.764h-5.029l-2.178 13.621c-.305 1.57.183 3.242 1.161 3.997l1.119.876h6.21l-.102-.856c-1.812-.693-2.545-2.365-2.341-3.874Z" fill="#6B6B6B"/><path d="m126.677 67.637 1.16-13.763h-5.028l-2.179 13.62c-.305 1.57.184 3.243 1.161 3.997l1.12.877h6.209l-1.242-.958c-.916-.714-1.405-2.264-1.201-3.773Z" fill="#A5A5A5"/><path d="M126.779 69.574h-6.128c.183.795.591 1.51 1.12 1.917l1.12.877h6.209l-1.242-.959c-.489-.408-.875-1.06-1.079-1.835Z" fill="#6B6B6B"/><path d="M177.919 69.289s-1.893-1.04-3.42-1.733c-1.527-.694-3.746.55-3.746.55s-.264-.713-.651-1.61c-.387-.939-.876-2.08-1.323-2.917-.245-.489-.469-.856-.652-1.04-.774-.815-.692-1.773-.916-2.242 0-.02-.02-.041-.02-.062-.163-.611.264-3.099.732-5.362.489-2.345 1.141-5.995 1.141-5.995.223.204.997.387 1.404.877 0 0 2.769 4.2 3.929 7.095 2.118 5.261 2.464 6.342 2.81 8.28.387 1.916.712 4.159.712 4.159Z" fill="#6D9BFF"/><path d="M154.202 70.37c1.629-.326 2.83.47 3.848.53 1.018.061 4.662-.326 4.662-.326l-.815-1.876s-4.153-.082-5.557.387c-1.405.47-2.138 1.285-2.138 1.285Z" fill="#FDD2BB"/><path d="M162.733 68.434s-2.158-.387-3.196-.407c-1.751-.041-3.726-.041-4.133.285-.407.326-2.504 2.712-2.789 3.1-.285.387-.143.836.733.53.875-.306 2.32-1.978 3.196-2.365.875-.388 2.504-.062 2.504-.062l3.237-.306.448-.775Z" fill="#FDD2BB"/><path opacity=".28" d="M160.187 68.068c-2.585.632-5.11 1.488-7.288 2.977-.142.163-.244.306-.305.367-.285.388-.143.836.733.53.875-.305 2.32-1.978 3.196-2.365.875-.388 2.504-.061 2.504-.061l3.237-.306.448-.775c.02 0-1.425-.245-2.525-.367Z" fill="#EB9271"/><path d="M160.574 68.514s-3.013-.203-3.787-.285c-.793-.082-1.404.571-1.832 1.346-.448.775-1.343 2.12-1.14 2.508.183.408.692.367 1.1-.081.427-.449.977-1.57 1.567-1.795.591-.224 2.586-.693 2.586-.693l1.506-1Z" fill="#FDD2BB"/><path opacity=".28" d="M156.828 69.004c-1.241.53-2.341 3.426-1.913 2.998.427-.449.977-1.57 1.567-1.795.591-.224 2.586-.693 2.586-.693l1.527-1.02s-.754-.061-1.609-.122c-.753.142-1.465.346-2.158.632Z" fill="#EB9271"/><path d="M165.867 71.206s-1.547-.102-2.097.428c-.549.53-1.099.775-1.608.714-.529-.06-1.466-.53-1.893-.795-.428-.265-1.812.632-2.24.836-.448.224-.834-.163-.631-.632.224-.47.672-.918 1.039-1.101.366-.184 1.934-.571 1.934-.571h-.041c-.183-.02-.896-.102-1.364-.082-.529.04-1.079.367-1.588 1.02-.489.652-1.018 1.386-1.303 1.509-.081.04-.183.02-.265-.082-.183-.183-.264-.591-.02-1.121.366-.775 1.303-1.999 1.791-2.61.489-.612 1.222-.674 1.935-.694.692-.02 2.32-.02 2.32-.02s1.792-.041 2.79-.041c.61.02 1.241 3.242 1.241 3.242Z" fill="#FDD2BB"/><path opacity=".28" d="M164.646 67.984h-.733a21.245 21.245 0 0 1-.265 3.773.907.907 0 0 1 .143-.122c.55-.53 2.097-.429 2.097-.429s-.652-3.222-1.242-3.222ZM160.371 70.064h-.041c-.183-.02-.896-.102-1.364-.081-.529.04-1.079.367-1.588 1.02-.489.652-1.018 1.386-1.303 1.508-.081.041-.183.02-.265-.081.53-.653 1.079-1.652 1.344-2.1.407-.694 1.588-.817 1.893-.817.285 0 1.324.551 1.324.551Z" fill="#EB9271"/><path d="M172.036 65.21s-1.527 1.183-3.644 1.836c-2.321.713-3.746.938-3.746.938s.163 1.916.224 3.915c0 0 5.089.795 8.408.163 3.318-.653 4.153-.53 4.702-1.978.55-1.448-.366-4.282-.794-5.526-.427-1.264-3.094-.285-5.15.653Z" fill="#6D9BFF"/><path d="M164.035 67.964c.55.734.529 1.835.672 3.365.102 1.06-.265 1.04-.265 1.04l2.789-.082s.306-1.611-.122-3.1l-.448-1.488-2.626.265Z" fill="#2C5CFF"/><path d="M180.871 66.19c.062-.409.387-.776.794-.898.306-.082.652-.061.876-.285.244-.245.142-.653.142-1 0-.693.448-1.345 1.1-1.59.285-.102.61-.122.834-.326.224-.204.306-.53.387-.836a3.85 3.85 0 0 1 1.303-1.897c.265-.203.591-.367.896-.285a.785.785 0 0 1 .489.55c.061.245.02.51-.062.755-.325.917-1.262 1.57-1.465 2.528-.102.47 0 .98-.102 1.448a1.796 1.796 0 0 1-1.018 1.244c-.244.102-.55.163-.713.387-.183.245-.122.612-.162.918-.082.673-.733 1.183-1.405 1.223-.672.041-1.324-.367-1.69-.917-.041.02-.265-.591-.204-1.02Z" fill="#4BBD6D"/><path d="M183.986 65.536a1.04 1.04 0 0 0 .122-1.08c-.122-.245-.366-.49-.346-.755.02-.306.346-.49.591-.713.468-.408.631-1.142.386-1.713-.509-1.224.591-2.284.489-3.589-.02-.285-.102-.612-.367-.775-.203-.122-.468-.102-.671.02-.204.102-.346.306-.469.51-.346.653-.346 1.346-.57 2.019-.224.632-.753.958-1.119 1.489a1.66 1.66 0 0 0-.204 1.447c.082.245.224.47.163.714-.061.285-.326.449-.509.673-.387.469-.346 1.223.041 1.692.387.47 1.058.673 1.649.571.02 0 .57-.224.814-.51Z" fill="#44AB63"/><path d="M183.66 66.291a.945.945 0 0 0-.651-.774c-.244-.082-.55-.062-.733-.266-.183-.224-.102-.55-.081-.836a1.414 1.414 0 0 0-.896-1.345c-.245-.082-.509-.123-.692-.286-.184-.183-.245-.448-.306-.693a3.204 3.204 0 0 0-1.058-1.61c-.204-.164-.489-.327-.754-.246a.607.607 0 0 0-.407.449c-.061.204-.02.428.041.632.265.775 1.038 1.346 1.181 2.141.081.408-.021.816.061 1.224.081.448.407.856.834 1.06.204.102.448.163.591.347.142.224.081.51.122.774.061.55.59 1 1.14 1.04.57.041 1.12-.265 1.446-.734-.021-.02.203-.53.162-.877Z" fill="#44AB63"/><path d="M180.159 64.497c-.082-.286-.306-.51-.407-.775-.204-.47-.082-1.02.122-1.51.163-.346.366-.713.346-1.08-.021-.244-.122-.469-.204-.693-.163-.55-.142-1.142-.102-1.713.021-.347.041-.714.184-1.02.142-.326.407-.611.753-.672.468-.082.936.285 1.099.734.184.448.143.938.082 1.407-.061.469-.122.958.02 1.427.143.53.529.938.753 1.448.265.611.204 1.366-.122 1.937-.163.285-.407.55-.509.877-.203.672.224 1.386.306 2.08.061.448-.041.937-.346 1.264-.672.775-1.792.244-2.036-.632-.122-.449-.265-1.02-.204-1.489.061-.53.428-1.04.265-1.59Z" fill="#4BBD6D"/><path d="M184.821 72.367h-4.478l-1.487-7.218h7.452l-1.487 7.218Z" fill="#D5D5D7"/><path d="M189.025 72.5h-86.32v2.793h86.32V72.5Z" stroke="#D4DBF1" stroke-width=".129" stroke-miterlimit="10"/></g><circle cx="79.855" cy="100.846" r="13.69" fill="#CBE1FD"/><mask id="mask0_1_2878" style="mask-type:alpha" maskUnits="userSpaceOnUse" x="69" y="91" width="30" height="30"><path d="M98.044 105.935c0 2.735-.763 5.293-2.084 7.469a14.26 14.26 0 0 1-1.217 1.705c-.28.338-.587.677-.895.985-.763.765-1.6 1.441-2.524 2.015a14.199 14.199 0 0 1-6.704 2.161c-.308.014-.616.029-.924.029-2.92 0-5.648-.882-7.908-2.382a14.68 14.68 0 0 1-1.922-1.514 14.11 14.11 0 0 1-2.728-3.514 14.306 14.306 0 0 1-1.79-6.968c0-3.97 1.599-7.572 4.21-10.174a14.273 14.273 0 0 1 10.152-4.205c3.962 0 7.556 1.603 10.152 4.205 2.583 2.632 4.182 6.219 4.182 10.188Z" fill="#DFEBFD"/></mask><g mask="url('#mask0_1_2878')"><path d="M77.285 115.485s-.768.783-1.536 1.662c-.329.358-.644.742-.918 1.086-.919 1.154-1.783 1.484-2.797 2.611-.631.701-1.454 1.237-2.99 1.484-1.535.247-7.157.646-7.157.646s-.137-.742-.041-.99c.027-.068-.041-.206-.137-.398-.247-.495-.659-1.251.137-1.347 1.083-.123 6.362-1.401 6.609-1.786.246-.385 1.673-2.158 2.44-3.765.768-1.608 1.92-3.573 3.1-5.497 1.028-1.69 1.33-1.773 1.878-2.268l.644 3.931.768 4.631Z" fill="#6D9BFF"/><path d="M86.528 100.162s-.384 1.127-.425 2.102c-.042.976-.042 2.323.246 2.845.288.522 3.291 2.281 3.291 2.281s-3.414.715-6.787.509c-3.373-.206-4.1-1.636-4.1-1.636s2.564-1.003 2.633-1.264c.068-.261.562-2.199.562-2.199l4.58-2.638Z" fill="#F6C1AA"/><path opacity=".28" d="M86.28 104.931c-.205-.605-.205-1.787-.178-2.666.041-.976.425-2.103.425-2.103l-4.566 2.611s-.493 1.952-.562 2.199c-.069.261-2.633 1.265-2.633 1.265s.028.055.096.137c2.482-.412 4.95-.921 7.419-1.443Z" fill="#EB9271"/><path d="M80.577 99.929c.11-.811.137-3.766.137-3.766l3.935-1.388 3.442 1.924s-.823 2.611-.837 3.436c-.013.824-.068 1.924-.59 2.707-.507.783-1.85 2.006-2.166 2.157-.946.44-1.563.138-2.276-.274-.302-.179-.713-1.072-1.11-1.924-.412-.852-.645-2.062-.535-2.872Z" fill="#FDD2BB"/><path d="M86.747 97.881s.014 1.058.288 1.745c.055.138.014.55-.041 1.045.137-.165.288-.316.425-.468.288-.302.549-.604.795-.92.151-.605.412-1.416.398-1.883-.027-1.415-.027-2.199-2.605-3.463-.494-.233-1.495-.893-2.002-.7-.768.288-.987.563-1.59 1.071 0 0-.81-.165-1.825.934-.59.646-.41 1.58-.383 2.282.068 1.429.452 1.346.452 1.346.055-.728.334-.698.553-1.797.069-.371.168-.47.552-.553.357-.083.527-.577 1.72.619.713.715 1.097.66 3.263.742Z" fill="#5C3000"/><path d="M86.843 100.108c.192-.714.494-1.237.823-1.223.315.028.644.619.247 1.292-.398.673-.659 1.086-.878 1.347-.22.289-.315-.962-.192-1.416Z" fill="#FDD2BB"/><path d="M87.035 100.191c.11-.385.288-.866.577-.839.288.028.329.344-.069.894-.398.536-.48.824-.48.824s-.083-.659-.028-.879Z" fill="#EB9271"/><path d="M83.593 114.632c-.425 2.501-.617 8.644-1.673 8.177-.576-.261-2.358-.248-3.866-.193a70.504 70.504 0 0 0-2.263.138s-.068-2.776-.04-5.607c.013-1.36.04-2.721.123-3.806.027-.358.04-.701.054-1.031.096-3.174-.425-5.016-.054-5.373.41-.399 5.196-1.608 5.43-2.185l.356 1.69c.877 1.402 2.016.976 2.016.976s.342 4.713-.083 7.214Z" fill="#6D9BFF"/><path d="M82.469 107.885c-.234 1.388-.288 2.474-.686 5.14-.398 2.666-.206 3.765-.384 5.441a206.54 206.54 0 0 1-.507 4.164l2.865.426s.096-4.809.247-8.19c.151-3.38.713-6.39.713-6.39l.384-2.061s-1.056 1.127-2.153 1.017c-1.11-.138-.48.453-.48.453Z" fill="#2C5CFF"/><path d="M91.039 109.877c-.11 1.031.37 2.309.15 3.752-.15.962-.342 2.13-.548 3.298-.288 1.663-.124 5.868-.124 5.868s-6.54-.234-7.65.082c-1.098.303-.412-5.799-.48-8.341-.07-2.542.96-7.132.96-7.132s.85 0 2.152-1.017c.809-.618.946-1.443.946-1.443.15.591 4.607 1.938 4.964 2.405.055.069.096.206.123.385.041.453-.397 1.181-.493 2.143Z" fill="#6D9BFF"/><path d="M83.332 107.404c.398-.11 1.728-.852 2.222-1.511.493-.66.63-1.402.63-1.402s.467.756.522 1.237c.054.481-1.07 2.817-1.276 3.463 0 0-.356-.069-1.014-.632a7.419 7.419 0 0 1-1.084-1.155ZM81.468 104.683s-.22.33.275 1.141c.493.811 1.576 1.594 1.576 1.594l-1.755 1.704s-.411-1.017-.658-1.896c-.247-.88-.206-1.814-.082-2.089.137-.261.644-.454.644-.454ZM83.853 111.183c-.013.262-.233.44-.493.426-.26-.013-.439-.233-.425-.494.013-.261.233-.44.493-.426.26.013.453.233.425.494ZM83.497 116.131c-.014.261-.233.439-.493.426-.261-.014-.44-.234-.426-.495.014-.261.233-.44.494-.426.26.013.453.233.425.495ZM85.8 113.011c1.139.096 2.387.234 2.867.179v.728s-1.139-.124-2.14-.124h-1.425l.123-.783s-.014-.041.576 0Z" fill="#2C5CFF"/><path d="M96.784 120.789s-1.275-.701-2.304-1.168c-1.028-.468-2.523.371-2.523.371s-.178-.481-.439-1.086c-.26-.632-.59-1.402-.89-1.965-.165-.33-.316-.577-.44-.701-.52-.549-.466-1.195-.617-1.511 0-.014-.013-.028-.013-.042-.11-.412.178-2.088.493-3.614.33-1.58.768-4.04.768-4.04.15.138.672.261.946.591 0 0 1.865 2.831 2.647 4.782 1.426 3.546 1.659 4.274 1.892 5.579.26 1.292.48 2.804.48 2.804Z" fill="#6D9BFF"/><path d="M92.821 118.04s-1.028.798-2.454 1.237c-1.563.481-2.523.633-2.523.633s.11 1.291.15 2.638c0 0 3.429.536 5.664.11 2.235-.44 2.797-.357 3.167-1.333.37-.976-.247-2.886-.535-3.724-.288-.852-2.084-.193-3.469.439Z" fill="#6D9BFF"/><path d="M87.432 119.896c.37.495.357 1.237.453 2.268.068.714-.178.701-.178.701l1.878-.055s.206-1.086-.082-2.089l-.302-1.004-1.769.179Z" fill="#2C5CFF"/></g><circle cx="106.322" cy="161.536" r="10.952" fill="#fff"/><mask id="mask1_1_2878" style="mask-type:alpha" maskUnits="userSpaceOnUse" x="99" y="158" width="24" height="24"><path d="M122.913 169.677c0 2.187-.61 4.234-1.666 5.974-.294.483-.622.941-.975 1.365-.223.27-.469.541-.716.788a11.19 11.19 0 0 1-2.018 1.611 11.358 11.358 0 0 1-5.364 1.729 11.42 11.42 0 0 1-7.065-1.882 11.337 11.337 0 0 1-3.721-4.022 11.452 11.452 0 0 1-1.431-5.575 11.45 11.45 0 0 1 3.368-8.139 11.417 11.417 0 0 1 8.122-3.364c3.168 0 6.044 1.282 8.121 3.364a11.595 11.595 0 0 1 3.345 8.151Z" fill="#DFEBFD"/></mask><g mask="url('#mask1_1_2878')"><path d="M106.345 177.278s-.614.627-1.228 1.331c-.263.285-.516.593-.735.868-.735.924-1.426 1.187-2.238 2.089-.504.56-1.163.989-2.391 1.187-1.229.198-5.726.517-5.726.517s-.11-.594-.033-.792c.022-.055-.033-.165-.11-.319-.197-.395-.526-1 .11-1.077.866-.099 5.09-1.121 5.287-1.429.198-.308 1.338-1.726 1.953-3.012.614-1.286 1.535-2.859 2.479-4.398.823-1.352 1.064-1.418 1.503-1.814l.515 3.145.614 3.704Z" fill="#6D9BFF"/><path d="M113.74 165.021s-.307.902-.34 1.682c-.033.781-.033 1.858.197 2.276.23.418 2.633 1.825 2.633 1.825s-2.732.572-5.43.407c-2.699-.165-3.28-1.308-3.28-1.308s2.051-.803 2.106-1.012c.055-.209.45-1.759.45-1.759l3.664-2.111Z" fill="#F6C1AA"/><path opacity=".28" d="M113.542 168.836c-.164-.484-.164-1.429-.142-2.133.033-.78.34-1.682.34-1.682l-3.653 2.089s-.395 1.561-.45 1.759c-.055.209-2.106 1.012-2.106 1.012s.022.044.077.11c1.985-.33 3.96-.737 5.934-1.155Z" fill="#EB9271"/><path d="M108.98 164.834c.087-.649.109-3.012.109-3.012l3.149-1.111 2.753 1.54s-.658 2.088-.669 2.748c-.011.659-.055 1.539-.472 2.166-.406.626-1.481 1.605-1.733 1.726-.757.351-1.251.11-1.821-.22-.241-.143-.57-.858-.889-1.539-.329-.682-.515-1.649-.427-2.298Z" fill="#FDD2BB"/><path d="M113.915 163.196s.011.847.231 1.397c.044.109.011.439-.033.835.109-.132.23-.253.34-.374.23-.242.439-.483.636-.736.121-.484.329-1.133.318-1.507-.022-1.132-.022-1.759-2.084-2.77-.395-.187-1.196-.715-1.602-.561-.614.231-.789.451-1.272.858 0 0-.647-.132-1.459.747-.472.517-.329 1.265-.307 1.825.055 1.144.362 1.078.362 1.078.044-.583.267-.559.442-1.439.055-.296.135-.376.442-.442.285-.066.421-.461 1.376.495.57.572.877.528 2.61.594Z" fill="#5C3000"/><path d="M113.992 164.977c.154-.571.395-.989.658-.978.253.022.516.495.198 1.033-.318.539-.527.869-.702 1.078-.176.231-.253-.77-.154-1.133Z" fill="#FDD2BB"/><path d="M114.146 165.043c.088-.308.23-.692.46-.67.231.022.264.274-.054.714-.318.429-.384.66-.384.66s-.066-.528-.022-.704Z" fill="#EB9271"/><path d="M111.392 176.597c-.34 2-.494 6.914-1.338 6.541-.461-.209-1.887-.198-3.094-.154-.987.044-1.81.11-1.81.11s-.054-2.221-.033-4.486c.011-1.088.033-2.176.099-3.045.022-.286.033-.56.044-.824.077-2.54-.34-4.013-.044-4.299.329-.319 4.158-1.286 4.344-1.748l.285 1.352c.702 1.122 1.613.781 1.613.781s.274 3.771-.066 5.772Z" fill="#6D9BFF"/><path d="M110.492 171.199c-.186 1.11-.23 1.979-.548 4.111-.318 2.133-.165 3.013-.307 4.354a168.126 168.126 0 0 1-.406 3.331l2.292.341s.077-3.848.198-6.553c.121-2.704.57-5.112.57-5.112l.307-1.649s-.844.902-1.722.814c-.888-.11-.384.363-.384.363Z" fill="#2C5CFF"/><path d="M117.348 172.793c-.088.824.296 1.847.121 3.001-.121.77-.274 1.704-.439 2.638-.23 1.331-.099 4.695-.099 4.695s-5.232-.187-6.121.066c-.877.242-.329-4.64-.384-6.673-.054-2.034.768-5.706.768-5.706s.68 0 1.722-.813c.648-.495.757-1.155.757-1.155.121.473 3.686 1.55 3.971 1.924.044.055.077.165.099.308.033.363-.318.945-.395 1.715Z" fill="#6D9BFF"/><path d="M111.184 170.814c.318-.088 1.382-.681 1.777-1.209s.504-1.121.504-1.121.373.604.417.989c.044.385-.856 2.254-1.02 2.771 0 0-.285-.055-.812-.506-.526-.451-.866-.924-.866-.924ZM109.692 168.637s-.176.264.219.913 1.262 1.275 1.262 1.275l-1.404 1.364s-.329-.814-.527-1.518c-.197-.703-.164-1.451-.066-1.671.11-.209.516-.363.516-.363ZM111.601 173.837c-.011.209-.187.352-.395.341-.209-.011-.352-.187-.341-.396.011-.209.187-.351.396-.34a.355.355 0 0 1 .34.395ZM111.316 177.795c-.011.209-.187.352-.396.341-.208-.011-.351-.187-.34-.396.011-.209.187-.352.395-.341a.356.356 0 0 1 .341.396ZM113.158 175.3c.91.077 1.909.186 2.292.143v.582s-.91-.099-1.711-.099h-1.141l.099-.626s-.011-.033.461 0Z" fill="#2C5CFF"/><path d="M121.945 181.522s-1.02-.561-1.843-.935-2.018.297-2.018.297-.143-.385-.351-.868c-.209-.506-.472-1.122-.713-1.573-.132-.263-.253-.461-.351-.56-.417-.44-.373-.957-.494-1.209 0-.011-.011-.022-.011-.033-.088-.33.143-1.671.395-2.892.263-1.264.614-3.232.614-3.232.121.11.538.209.757.473 0 0 1.492 2.265 2.117 3.826 1.141 2.836 1.327 3.419 1.514 4.463.208 1.033.384 2.243.384 2.243Z" fill="#6D9BFF"/><path d="M118.776 179.323s-.823.638-1.964.99c-1.25.384-2.018.505-2.018.505s.087 1.034.12 2.111c0 0 2.743.429 4.531.088 1.788-.351 2.238-.286 2.534-1.066.296-.781-.198-2.309-.428-2.98-.23-.681-1.667-.154-2.775.352Z" fill="#6D9BFF"/><path d="M114.464 180.807c.296.396.285.99.362 1.815.054.571-.143.56-.143.56l1.503-.044s.164-.868-.066-1.671l-.241-.803-1.415.143Z" fill="#2C5CFF"/></g><path stroke="#000" stroke-width=".509" d="M283.768 205.909H80.775"/><path d="M245.498 77.574c19.622 13.918-2.738 43.578-14.145 44.719" stroke="#685ED6" stroke-width=".456" stroke-linecap="round" stroke-linejoin="round" stroke-dasharray="2.28 3.19"/><path d="M58.408 65.482c-27.15 30.725-42.62 85.011-24.184 119.326 23.044 42.894 67.535 46.545 141.914 52.249" stroke="#18E1F7" stroke-width=".456" stroke-linecap="round" stroke-linejoin="round" stroke-dasharray="2.28 3.19"/><path d="M226.561 65.025c-6.236-2.814-14.511-6.89-15.971-15.287-1.46-8.396 14.374-23.043 2.966-28.747" stroke="#685ED6" stroke-width=".456" stroke-linecap="round" stroke-linejoin="round" stroke-dasharray="2.28 3.19"/><path d="m16.541 31.225 25.352 4.223-16.63-12.051-.936 3.74-6.203.996-1.583 3.092Z" fill="#685ED6"/><path d="M41.893 35.447 20.964 23.924.254 22.416l41.64 13.03Z" fill="#18E1F7"/><path d="m25.26 23.396 16.632 12.052-12.69-18.546-3.941 6.494Z" fill="#18E1F7"/><path d="m297.808 19.343-13.902 5.859 7.865-9.138 1.04 2.007 3.675-.276 1.322 1.548Z" fill="#685ED6"/><path d="m283.906 25.201 10.389-9.42 11.618-3.678-22.007 13.098ZM291.773 16.06l-7.866 9.14 4.739-12.308 3.127 3.168Z" fill="#18E1F7"/><path d="M159.739 42.85s-1.674.285-3.348-.194c0 0 .239.959 1.913 1.119 1.196-.16 1.435-.925 1.435-.925Z" fill="#fff"/><path d="m203.832 256.735 19.184-8.016-16.076-.488.758 2.708-3.93 3.218.064 2.578Z" fill="#685ED6"/><path d="m223.016 248.718-18.86 1.64-14.94 7.749 33.8-9.389Z" fill="#18E1F7"/><path d="m206.937 248.23 16.079.489-15.787-6.164-.292 5.675Z" fill="#18E1F7"/><path d="M224.28 237.513c30.801 7.529 83.049 13.233 83.049-24.185 0-39.732-15.743-38.559-25.782-97.88" stroke="#18E1F7" stroke-width=".456" stroke-linecap="round" stroke-linejoin="round" stroke-dasharray="2.28 3.19"/><defs><clipPath id="clip0_1_2878"><path fill="#fff" transform="translate(104.934 28.354)" d="M0 0h86.523v51.935H0z"/></clipPath></defs></svg>