<svg width="112" height="95" fill="none" xmlns="http://www.w3.org/2000/svg"><path fill-rule="evenodd" clip-rule="evenodd" d="M.491 80.163c16.702-8.243 25.052-17.929 25.052-29.057-7.118-.824-13.005-3.743-17.66-8.758C3.23 37.334.903 31.53.903 24.935c0-7.007 2.259-12.914 6.776-17.722C12.196 2.404 17.878 0 24.722 0c7.666 0 14.306 3.125 19.919 9.376 5.612 6.251 8.419 13.842 8.419 22.772 0 26.79-14.922 47.74-44.766 62.852L.491 80.163Zm58.94 0C76.27 71.92 84.69 62.234 84.69 51.106c-7.255-.824-13.21-3.743-17.865-8.758-4.654-5.014-6.982-10.819-6.982-17.413 0-7.007 2.293-12.914 6.88-17.722C71.306 2.404 77.021 0 83.867 0c7.666 0 14.271 3.125 19.816 9.376C109.228 15.627 112 23.218 112 32.148c0 26.79-14.853 47.74-44.56 62.852l-8.008-14.837Z" fill="#E6DCFE"/></svg>