<svg xmlns="http://www.w3.org/2000/svg"><symbol id="burger" viewBox="0 0 30 18"><rect width="30" height="2" rx="1" fill="#685ED6"/><rect y="8" width="30" height="2" rx="1" fill="#33AFE1"/><rect y="16" width="30" height="2" rx="1" fill="#18E1F7"/></symbol><symbol id="close" viewBox="0 0 28 28"><rect y="1.75" width="2.475" height="37.123" rx="1.237" transform="rotate(-45 0 1.75)" fill="#685ED6"/><rect x="1.75" y="28" width="2.475" height="37.123" rx="1.237" transform="rotate(-135 1.75 28)" fill="#685ED6"/></symbol><symbol id="icon-1" viewBox="0 0 41 41"><path d="M40.372.588A1.428 1.428 0 0 0 38.906.24L11.19 9.414c-.755.25-.369 1.418.386 1.168l27.717-9.174c.193-.02.279.067.259.26L27.794 37.19a.325.325 0 0 1-.6.036l-4.749-10.1 2.253-3.636c.419-.676-.627-1.324-1.046-.648l-2.23 3.598-5.561-.47 15.384-15.385-5.887 9.502c-.419.676.627 1.325 1.046.648L35.087 6.72c.335-.54-.309-1.182-.848-.847L13.867 18.547 3.73 13.768a.325.325 0 0 1 .036-.601l4.73-1.565c.755-.25.369-1.418-.387-1.168l-4.73 1.565c-1.305.432-1.418 2.295-.174 2.882l10.118 4.77.553 6.869a.622.622 0 0 0 .562.564l6.903.584L26.08 37.75c.582 1.24 2.45 1.132 2.882-.172L40.72 2.054a1.428 1.428 0 0 0-.348-1.466ZM14.996 25.094l-.393-4.874-.052-.65 15.794-9.825-15.35 15.35ZM12.048 28.578a.615.615 0 0 0-.87.014L.175 39.955c-.552.57.329 1.43.884.856l11.003-11.363a.615.615 0 0 0-.014-.87Z" fill="#685ED6"/><path d="M15.998 28.595 7.303 37.65c-.55.572.334 1.428.888.852l8.696-9.056c.55-.574-.336-1.426-.887-.852ZM2.668 33.825a.614.614 0 0 0 .444-.19l8.696-9.056c.551-.573-.336-1.426-.887-.852l-8.697 9.056c-.354.37-.065 1.041.444 1.041Z" fill="#685ED6"/></symbol><symbol id="icon-2" viewBox="0 0 36 42"><path d="M14.063 9.4h-4.08L18 .32l8.017 9.08h-4.08V24.28h-1.312V8.088h2.483L18 2.304l-5.107 5.784h2.482V24.28h-1.312V9.401Zm-7.22 16.194h22.313v15.75H6.844v-15.75Zm21 1.312h-7.218v13.125h7.219V26.906Zm-15.75.99c0 .178.146.323.324.323h2.635a.324.324 0 0 0 .323-.323v-.99h-3.281v.99ZM8.157 40.03h11.157V26.906h-2.625v.99c0 .902-.734 1.635-1.636 1.635h-2.635a1.637 1.637 0 0 1-1.636-1.635v-.99H8.156v13.125Zm-5.25 1.313H4.22V19.687H2.936l3.252-4.18 3.251 4.18H8.156v4.594H9.47V21h2.654l-5.935-7.632L.252 21h2.654v20.344Zm23.625-23.625v6.562h1.313v-7.875H26.56l3.252-4.18 3.251 4.18h-1.283v24.938h1.313V17.719h2.654l-5.935-7.632-5.936 7.632h2.654Z" fill="#685ED6"/></symbol><symbol id="icon-3" viewBox="0 0 39 40"><path d="M4.62 32.079c0-1.022-.845-1.853-1.883-1.853-1.039 0-1.884.831-1.884 1.853s.845 1.853 1.884 1.853c1.038 0 1.884-.831 1.884-1.853Zm-2.511 0c0-.341.281-.618.628-.618.346 0 .628.277.628.618 0 .34-.282.618-.628.618a.623.623 0 0 1-.628-.618Zm-1.256-8.99c0 1.021.845 1.853 1.884 1.853 1.038 0 1.884-.832 1.884-1.853 0-1.022-.846-1.853-1.884-1.853-1.039 0-1.884.831-1.884 1.853Zm1.884-.618c.346 0 .628.277.628.618a.623.623 0 0 1-.628.617.623.623 0 0 1-.628-.617c0-.341.281-.618.628-.618Zm15.698 5.559c0 .34.282.617.628.617h1.256c1.039 0 1.884.832 1.884 1.854 0 1.021-.845 1.852-1.884 1.852v1.236h-1.256v-1.236c-1.038 0-1.884-.83-1.884-1.853h1.256c0 .341.282.618.628.618h1.256a.623.623 0 0 0 .628-.617.623.623 0 0 0-.628-.618h-1.256c-1.038 0-1.884-.831-1.884-1.853s.846-1.853 1.884-1.853v-1.235h1.256v1.235c1.039 0 1.884.831 1.884 1.853h-1.256a.623.623 0 0 0-.628-.618h-1.256a.623.623 0 0 0-.628.618Zm20.094 4.049c0 1.022-.845 1.853-1.883 1.853-1.039 0-1.884-.831-1.884-1.853s.845-1.853 1.884-1.853c1.038 0 1.883.831 1.883 1.853Zm-1.255 0a.623.623 0 0 0-.628-.618.623.623 0 0 0-.628.618c0 .34.281.618.628.618a.623.623 0 0 0 .628-.618Zm-.628-10.843c1.038 0 1.883.831 1.883 1.853 0 1.021-.845 1.853-1.883 1.853-1.039 0-1.884-.832-1.884-1.853 0-1.022.845-1.853 1.884-1.853Zm0 1.235a.623.623 0 0 0-.628.618c0 .34.281.617.628.617a.623.623 0 0 0 .628-.617.623.623 0 0 0-.628-.618Zm-3.14 10.226V31.46H32.25v-3.088h-2.512v1.235h1.256v3.089h2.512Zm0-8.99V22.47h-2.512v3.088h-1.256v1.236h2.512v-3.089h1.256ZM5.876 31.46v1.236h2.512v-3.089h1.256v-1.235H7.132v3.088H5.877Zm3.768-5.902H8.388v-3.088H5.877v1.235h1.255v3.089h2.512v-1.236Zm7.535-12.353v-.287l-.205-.135a3.69 3.69 0 0 1-1.652-2.666h-.654c-1.039 0-1.884-.832-1.884-1.853 0-.455.174-.868.453-1.191a4.244 4.244 0 0 1-.453-1.897c0-2.384 1.972-4.324 4.395-4.324h5.024c2.423 0 4.396 1.94 4.396 4.324 0 .662-.16 1.308-.453 1.898.279.323.453.735.453 1.19 0 1.021-.846 1.853-1.884 1.853h-.655a3.689 3.689 0 0 1-1.651 2.666l-.206.135v.287h9.42c.28 0 .535.094.744.247l.251-.247c.81-.796 2.222-.796 3.032 0h.368c1.038 0 1.883.832 1.883 1.853v1.235c0 1.022-.845 1.853-1.883 1.853H25.343v2.47h1.112l1.642 5.654a9.65 9.65 0 0 1 .385 2.704c0 3.081-1.496 6.026-4.002 7.875l-1.775 1.309a5.119 5.119 0 0 1-3.014.988 5.112 5.112 0 0 1-3.01-.986l-1.778-1.311C12.396 35 10.9 32.057 10.9 28.975c0-.916.13-1.826.386-2.705l1.641-5.653h1.113v-2.47H3.364c-1.038 0-1.883-.831-1.883-1.853V15.06c0-1.021.845-1.853 1.884-1.853h.368c.81-.796 2.222-.796 3.031 0l.25.247a1.26 1.26 0 0 1 .746-.247h9.42ZM6.504 16.912v-2.215l-.627-.617a.922.922 0 0 0-1.256 0l-.368.361h-.888a.623.623 0 0 0-.628.618v1.235c0 .341.281.618.628.618h3.14Zm19.005 4.94h-1.672a5.64 5.64 0 0 1-3.1-.923l-1.046-.686-1.045.686a5.635 5.635 0 0 1-3.103.924h-1.668l-1.381 4.757a8.45 8.45 0 0 0-.338 2.366c0 2.694 1.308 5.268 3.5 6.886l1.777 1.31c1.296.954 3.22.955 4.52-.002l1.773-1.308c2.192-1.617 3.5-4.192 3.5-6.887 0-.8-.113-1.596-.336-2.364l-1.381-4.758Zm7.997-7.773-.628.618v2.215h3.14a.623.623 0 0 0 .628-.618V15.06a.623.623 0 0 0-.628-.618h-.888l-.368-.362a.922.922 0 0 0-1.256 0Zm-1.884.362h-9.419l-2.512 2.11-2.205-2.11H7.76v2.471H15.296v3.705h.247c.86 0 1.692-.247 2.406-.716l1.742-1.143 1.742 1.143a4.365 4.365 0 0 0 2.403.716h.25v-3.705H31.623v-2.47Zm-6.28-6.176a.623.623 0 0 0-.627-.618h-.628v1.236h.628a.623.623 0 0 0 .628-.618Zm-10.674.618h.628V7.647h-.628a.623.623 0 0 0-.628.618c0 .34.281.618.628.618Zm2.253-4.067a2.396 2.396 0 0 1 1.816.127l1.02.502a3.42 3.42 0 0 0 1.504.35c.521 0 1.042.088 1.534.258l.584.11.708.249h.628c.119 0 .235.013.348.034.183-.397.28-.828.28-1.27 0-1.702-1.409-3.088-3.14-3.088h-5.024c-1.73 0-3.14 1.386-3.14 3.089 0 .44.097.872.28 1.27.114-.022.23-.035.349-.035h.72a2.348 2.348 0 0 1 1.533-1.596Zm.749 6.94.206.135c.35.23.56.614.56 1.028v.65l1.255 1.234 1.256-1.235v-.65c0-.413.21-.797.56-1.027l.205-.135A2.456 2.456 0 0 0 22.831 9.7V7.411l-.066-.032a3.426 3.426 0 0 0-1.504-.35 4.712 4.712 0 0 1-2.065-.479l-1.021-.502a1.13 1.13 0 0 0-.855-.06c-.46.15-.768.57-.768 1.046V9.7c0 .828.418 1.596 1.118 2.056Z" fill="#685ED6"/></symbol><symbol id="icon-4" viewBox="0 0 40 40"><path d="m9.733 17.696-.067-.134 1.145-.573.067.135c.244.489.734.791 1.28.791.545 0 1.036-.303 1.28-.79l.066-.136 1.145.573-.067.135a2.695 2.695 0 0 1-2.424 1.498 2.694 2.694 0 0 1-2.425-1.499ZM.002 32.63v-.559c0-1.877.515-3.697 1.483-5.294l-1.23-2.152a1.904 1.904 0 0 1-.185-1.457c.135-.495.454-.907.9-1.161a1.921 1.921 0 0 1 2.619.716l.617 1.081A10.239 10.239 0 0 1 6.364 22.6a5.995 5.995 0 0 1-3.014-3.441 3.205 3.205 0 0 1-2.708-3.162v-.42c0-.185.016-.37.047-.549l1.096-6.302A10.51 10.51 0 0 1 12.158.001 10.51 10.51 0 0 1 22.53 8.725l1.095 6.303c.032.178.048.363.048.549v.419a3.204 3.204 0 0 1-2.71 3.161 5.992 5.992 0 0 1-3.014 3.442c3.773 1.553 6.364 5.29 6.364 9.472v.56c0 2.469-2.01 4.478-4.479 4.478h-1.92v2.559H6.4v-2.56H4.48A4.483 4.483 0 0 1 .002 32.63Zm7.037 3.2h3.2v-2.295l-.64-.64a.926.926 0 0 0-1.28 0l-.375.375h-.905a.64.64 0 0 0-.64.64v1.28c0 .352.287.64.64.64ZM4.89 27.58l-1.067.712 2.114 3.698H6.4v-1.769l-1.51-2.64Zm4.069-.708h-1.28v4.905c.843-.598 2.08-.53 2.824.213l.255.256a1.27 1.27 0 0 1 .76-.256h5.118v-5.118h-1.28a1.28 1.28 0 0 1-1.279 1.28h-3.839a1.28 1.28 0 0 1-1.28-1.28Zm5.118-13.435c0 1.058.861 1.919 1.92 1.919 1.058 0 1.919-.861 1.919-1.92 0-1.058-.861-1.919-1.92-1.919-1.058 0-1.919.861-1.919 1.92Zm-.175-2.399a7.021 7.021 0 0 1-2.875-2.053l-.751-.9a1.122 1.122 0 0 0-.865-.406c-.43 0-.816.238-1.008.623l-.27.54-.963.32c-.46.154-.77.584-.77 1.07v.662a3.166 3.166 0 0 1 1.919-.656 3.205 3.205 0 0 1 3.134 2.559h1.409c.142-.7.522-1.306 1.04-1.759Zm-5.583.48c-1.058 0-1.92.86-1.92 1.919 0 1.058.862 1.919 1.92 1.919 1.058 0 1.92-.861 1.92-1.92 0-1.058-.862-1.919-1.92-1.919Zm-1.92 4.553a3.69 3.69 0 0 0 2.527 3.504 1.917 1.917 0 0 1 1.312 1.821v.92l.155.619a1.816 1.816 0 0 0 1.765 1.378c.836 0 1.56-.566 1.764-1.377l.155-.62v-.92c0-.826.527-1.558 1.312-1.82a3.69 3.69 0 0 0 2.527-3.505v-.091a3.165 3.165 0 0 1-1.92.656 3.205 3.205 0 0 1-3.134-2.559h-1.409a3.204 3.204 0 0 1-3.134 2.56c-.723 0-1.383-.25-1.92-.657v.09Zm3.84 9.522v1.28h3.839l-.001-1.28h-3.839Zm6.397 11.516H7.68v1.28h8.957v-1.28Zm-.683-13.796-.766-.164-.024.097a3.08 3.08 0 0 1-.586 1.169c.458.195.78.65.78 1.178h2.559v6.397h2.314l.817 1.634-1.145.572-.462-.926h-7.922v2.56h8.317a3.203 3.203 0 0 0 3.199-3.2v-.559c0-4.195-2.978-7.878-7.081-8.758Zm-8.797-1.748 1.085.465.717-.153v-.48a.638.638 0 0 0-.438-.607 4.967 4.967 0 0 1-3.4-4.719v-5.84c0-1.037.66-1.954 1.644-2.282l.46-.153.034-.066A2.394 2.394 0 0 1 9.41 6.399a2.4 2.4 0 0 1 1.85.866l.75.901a5.736 5.736 0 0 0 2.703 1.804 2.9 2.9 0 0 1-.303-.88c-.14-.84-.814-1.411-1.613-1.411v-1.28a2.896 2.896 0 0 1 2.866 2.428c.14.84.814 1.41 1.613 1.41h1.92v5.834a4.967 4.967 0 0 1-3.402 4.718.64.64 0 0 0-.437.607v.48l.717.154 1.084-.466a4.704 4.704 0 0 0 2.696-3.165l.12-.484h.5c1.058 0 1.92-.861 1.92-1.92v-.418c0-.11-.01-.22-.029-.328L21.27 8.945a9.23 9.23 0 0 0-9.111-7.664 9.233 9.233 0 0 0-9.113 7.664L1.95 15.248c-.019.11-.029.22-.029.329v.419c0 1.058.862 1.92 1.92 1.92h.5l.12.483a4.705 4.705 0 0 0 2.696 3.166Zm-2.303 3.37L6.4 27.642v-2.05h2.559c0-.528.322-.982.78-1.177a3.08 3.08 0 0 1-.586-1.17l-.025-.096-.766.164a8.963 8.963 0 0 0-3.51 1.622Zm-3.488-.945 1.822 3.189 1.067-.712-1.777-3.11a.657.657 0 0 0-.872-.24.638.638 0 0 0-.24.873Zm-.084 8.64a3.203 3.203 0 0 0 3.2 3.2h.757a1.898 1.898 0 0 1-.118-.64v-1.28c0-.225.046-.44.118-.64H4.236l-.463.926-1.145-.573.817-1.633h1.019l-2.237-3.914a8.919 8.919 0 0 0-.946 3.995v.56Zm36.152-18.178-2.997 2.412a1.862 1.862 0 0 1-2.331 0l-2.997-2.413a5.974 5.974 0 0 1-2.235-4.678c0-.532.07-1.062.21-1.576L28.5 2.97l.467-.02a10.665 10.665 0 0 0 4.036-.97l.267-.123.268.123c1.273.586 2.63.912 4.036.97l.467.02 1.418 5.228c.139.514.21 1.044.21 1.576a5.977 5.977 0 0 1-2.236 4.679Zm.956-4.679c0-.419-.056-.837-.165-1.24l-1.175-4.333a11.9 11.9 0 0 1-3.139-.693v7.37h-1.28v-7.37c-1.01.369-2.06.606-3.138.693l-1.175 4.333c-.11.404-.165.822-.165 1.24 0 1.44.641 2.783 1.758 3.682l2.72 2.19v-3.488h1.28v3.488l2.72-2.19a4.702 4.702 0 0 0 1.759-3.682Zm-1.732 8.329-5.946 5.946-.827-.827-.904.904 1.731 1.732 6.85-6.85-.904-.905Zm0 4.479-5.946 5.946-.827-.828-.904.905 1.731 1.732 6.85-6.85-.904-.905Zm-6.773 9.597-.904.905 1.731 1.731 6.85-6.85-.904-.905-5.946 5.946-.827-.827Z" fill="#685ED6"/></symbol></svg>